<?xml version="1.0" encoding="UTF-8"?>
<!DOCTYPE svg PUBLIC "-//W3C//DTD SVG 1.1//EN" "http://www.w3.org/Graphics/SVG/1.1/DTD/svg11.dtd">
<!-- Creator: CorelDRAW -->
<svg xmlns="http://www.w3.org/2000/svg" xml:space="preserve" width="380px" height="380px" version="1.1" style="shape-rendering:geometricPrecision; text-rendering:geometricPrecision; image-rendering:optimizeQuality; fill-rule:evenodd; clip-rule:evenodd"
viewBox="0 0 95.92 96"
 xmlns:xlink="http://www.w3.org/1999/xlink"
 xmlns:xodm="http://www.corel.com/coreldraw/odm/2003">
 <defs>
  <style type="text/css">
   <![CDATA[
    .fil0 {fill:black;fill-rule:nonzero}
   ]]>
  </style>
 </defs>
 <g id="Camada_x0020_1">
  <metadata id="CorelCorpID_0Corel-Layer"/>
  <g id="_2293910546512">
   <g id="Camada_2" data-name="Camada 2">
    <g id="Camada_1-2" data-name="Camada 1">
     <circle class="fil0" cx="40.49" cy="62.98" r="1.87"/>
     <path class="fil0" d="M7.5 25.49l0 7.49c0,0.01 0,0.01 0,0.01 0,1.04 0.83,1.87 1.87,1.87 0.01,0 0.02,0 0.03,0l54.14 0c0,0 0,0 0,0 1.03,0 1.87,-0.83 1.87,-1.87 0,0 0,0 0,-0.01l0 -7.49c0,-1.04 -0.84,-1.87 -1.87,-1.87l-54.14 0c-0.01,0 -0.02,0 -0.03,0 -1.04,0 -1.87,0.83 -1.87,1.87 0,0 0,0 0,0l0 0zm19.87 1.88l34.29 0 0 3.74 -34.29 0 0 -3.74zm-16.12 0l12.37 0 0 3.74 -12.37 0 0 -3.74z"/>
     <path class="fil0" d="M9.4 42.36l54.14 0c0.99,-0.06 1.76,-0.88 1.76,-1.88 0,-0.99 -0.77,-1.81 -1.76,-1.87l-54.14 0c-0.99,0.06 -1.76,0.88 -1.76,1.87 0,1 0.77,1.82 1.76,1.88l0 0z"/>
     <path class="fil0" d="M9.4 49.86l54.14 0c0.99,-0.07 1.76,-0.89 1.76,-1.88 0,-0.99 -0.77,-1.81 -1.76,-1.88l-54.14 0c-0.99,0.07 -1.76,0.89 -1.76,1.88 0,0.99 0.77,1.81 1.76,1.88l0 0z"/>
     <path class="fil0" d="M9.4 57.35l31.09 0c1.03,0 1.87,-0.84 1.87,-1.87 0,-1.03 -0.84,-1.87 -1.87,-1.87l-31.09 0c-1.03,0 -1.87,0.84 -1.87,1.87 0,1.03 0.84,1.87 1.87,1.87l0 0z"/>
     <path class="fil0" d="M9.4 64.85l23.58 0c1.04,0 1.88,-0.84 1.88,-1.87 0,-1.04 -0.84,-1.88 -1.88,-1.88l-23.58 0c-1.03,0 -1.87,0.84 -1.87,1.88 0,1.03 0.84,1.87 1.87,1.87l0 0z"/>
     <path class="fil0" d="M25.49 79.85l9.56 0c0.89,4.37 4.75,7.52 9.21,7.52 5.19,0 9.4,-4.21 9.4,-9.4 0,-5.19 -4.21,-9.4 -9.4,-9.4 -4.46,0 -8.32,3.15 -9.21,7.53l-9.56 0c-0.99,0.06 -1.76,0.88 -1.76,1.87 0,0.99 0.77,1.81 1.76,1.88l0 0zm18.74 -3.75l-5.3 0c0.79,-2.25 2.92,-3.75 5.3,-3.75 3.11,0 5.63,2.52 5.63,5.62 0,3.11 -2.52,5.63 -5.63,5.63 -2.38,0 -4.51,-1.51 -5.3,-3.75l5.3 0c0.99,-0.07 1.76,-0.89 1.76,-1.88 0,-0.99 -0.77,-1.81 -1.76,-1.87l0 0z"/>
     <path class="fil0" d="M63.54 14.99c1.03,0 1.87,-0.84 1.87,-1.87 0,-1.03 -0.84,-1.87 -1.87,-1.87l-3.75 0c-1.04,0 -1.87,0.84 -1.87,1.87 0,1.03 0.83,1.87 1.87,1.87l3.75 0z"/>
     <path class="fil0" d="M52.29 14.99c1.04,0 1.87,-0.84 1.87,-1.87 0,-1.03 -0.83,-1.87 -1.87,-1.87l-3.73 0c-1.03,0 -1.87,0.84 -1.87,1.87 0,1.03 0.84,1.87 1.87,1.87l3.73 0z"/>
     <path class="fil0" d="M41.04 14.99c1.04,0 1.88,-0.84 1.88,-1.87 0,-1.03 -0.84,-1.87 -1.88,-1.87l-3.74 0c-1.03,0 -1.87,0.84 -1.87,1.87 0,1.03 0.84,1.87 1.87,1.87l3.74 0z"/>
     <circle class="fil0" cx="36.74" cy="94.09" r="1.87"/>
     <path class="fil0" d="M1.87 95.96l26.43 0c1.03,0 1.87,-0.84 1.87,-1.87 0,-1.04 -0.84,-1.87 -1.87,-1.87l-24.55 0 0 -73.48 13.12 0c1.04,0 1.87,-0.83 1.87,-1.87l0 -13.12 50.42 0 0 52.98c-0.85,1 -1.64,1.88 -2.35,2.59l-3.97 -3.97c-1.76,-1.75 -4.14,-2.74 -6.62,-2.74 -2.49,0 -4.87,0.99 -6.63,2.74l-2.64 2.61c-0.35,0.36 -0.55,0.83 -0.55,1.33 0,0.5 0.2,0.97 0.55,1.33l22.21 22.24 0 9.4 -23.99 0c-1.03,0 -1.87,0.83 -1.87,1.87 0,1.03 0.84,1.87 1.87,1.87l25.85 0c1.03,0 1.87,-0.84 1.87,-1.87l0 -7.49 0.55 0.56c0.35,0.34 0.83,0.54 1.33,0.54 0.5,0 0.97,-0.2 1.33,-0.54l2.64 -2.66c1.75,-1.76 2.74,-4.14 2.74,-6.63 0,-2.48 -0.99,-4.86 -2.74,-6.62l-3.97 -3.97c3.56,-3.47 11.38,-9.22 15.49,-10.97 3.43,-1.49 5.66,-4.88 5.66,-8.63 0,-5.19 -4.21,-9.4 -9.4,-9.4 -3.69,0 -7.05,2.17 -8.57,5.54 -1.41,2.84 -3.12,5.55 -5.04,8.07l0 -50.06c0,-1.03 -0.84,-1.87 -1.87,-1.87l-54.17 0c-0.5,0 -0.97,0.2 -1.33,0.55l-14.99 14.99c-0.35,0.36 -0.55,0.83 -0.55,1.33l0 77.22c0,1.03 0.84,1.87 1.87,1.87l0 0zm74.24 -22.06c1.06,1.06 1.65,2.49 1.65,3.98 0,1.49 -0.59,2.92 -1.65,3.97l-1.33 1.33 -23.87 -23.86 1.34 -1.36c1.06,-1.05 2.49,-1.65 3.98,-1.65 1.49,0 2.92,0.6 3.97,1.65l15.91 15.94zm-3.61 -15.33c3.25,-3.91 7.25,-9.51 8.88,-13.18 0.89,-2.06 2.93,-3.4 5.18,-3.4 3.11,0 5.64,2.53 5.64,5.65 0,2.26 -1.34,4.3 -3.42,5.19 -4.7,2.03 -12.79,8.02 -16.65,11.75l-2.65 -2.61c0.89,-0.91 1.92,-2.07 3.02,-3.4zm-57.51 -52.17l0 8.62 -8.61 0 8.61 -8.62z"/>
    </g>
   </g>
  </g>
 </g>
</svg>
