<?xml version="1.0" encoding="UTF-8"?>
<!DOCTYPE svg PUBLIC "-//W3C//DTD SVG 1.1//EN" "http://www.w3.org/Graphics/SVG/1.1/DTD/svg11.dtd">
<!-- Creator: CorelDRAW -->
<svg xmlns="http://www.w3.org/2000/svg" xml:space="preserve" width="748px" height="639px" version="1.1" style="shape-rendering:geometricPrecision; text-rendering:geometricPrecision; image-rendering:optimizeQuality; fill-rule:evenodd; clip-rule:evenodd"
viewBox="0 0 168.61 143.89"
 xmlns:xlink="http://www.w3.org/1999/xlink"
 xmlns:xodm="http://www.corel.com/coreldraw/odm/2003">
 <defs>
  <style type="text/css">
   <![CDATA[
    .fil1 {fill:none}
    .fil0 {fill:#999999}
   ]]>
  </style>
 </defs>
 <g id="Camada_x0020_1">
  <metadata id="CorelCorpID_0Corel-Layer"/>
  <path class="fil0" d="M50.28 99.6c-4.14,-3.4 -8.61,-14.72 -9.56,-22.01 -1.25,-9.48 0.84,-18.82 4.54,-25.86 16.76,-31.9 61.61,-31.48 78.09,0 3.74,7.12 5.83,16.56 4.52,26.13 -1.03,7.46 -5.33,18.01 -9.53,21.76 -3.06,-12.42 -10.61,-21.34 -21.69,-25.48 -1.56,-0.58 -7.85,2.38 -12.34,2.39 -4.13,0 -10.63,-3.07 -12.56,-2.29 -3.8,1.53 -7.15,3.53 -9.76,5.76 -5.67,4.85 -9.24,10.13 -11.71,19.6zm-14.52 -24.62c1.81,25.59 23.79,47.48 51.57,45.5 25.41,-1.8 47.49,-23.49 45.52,-51.56 -1.79,-25.62 -23.74,-47.47 -51.56,-45.52 -25.45,1.78 -47.51,23.63 -45.53,51.58zm31.36 -17.92c3.67,22.59 37.12,17.86 34.44,-4.78 -1.05,-8.84 -9.31,-16.15 -19.6,-14.9 -8.46,1.02 -16.51,9.41 -14.84,19.68z"/>
  <rect class="fil1" width="168.61" height="143.89"/>
 </g>
</svg>
