<?xml version="1.0" encoding="UTF-8"?>
<!DOCTYPE svg PUBLIC "-//W3C//DTD SVG 1.1//EN" "http://www.w3.org/Graphics/SVG/1.1/DTD/svg11.dtd">
<!-- Creator: CorelDRAW -->
<svg xmlns="http://www.w3.org/2000/svg" xml:space="preserve" width="308px" height="380px" version="1.1" style="shape-rendering:geometricPrecision; text-rendering:geometricPrecision; image-rendering:optimizeQuality; fill-rule:evenodd; clip-rule:evenodd"
viewBox="0 0 132.71 163.88"
 xmlns:xlink="http://www.w3.org/1999/xlink"
 xmlns:xodm="http://www.corel.com/coreldraw/odm/2003">
 <defs>
  <style type="text/css">
   <![CDATA[
    .fil1 {fill:#1A171B;fill-rule:nonzero}
    .fil0 {fill:#272525;fill-rule:nonzero}
   ]]>
  </style>
 </defs>
 <g id="Camada_x0020_1">
  <metadata id="CorelCorpID_0Corel-Layer"/>
  <g id="_2293710355840">
   <g id="Camada_2" data-name="Camada 2">
    <g id="Camada_1-2" data-name="Camada 1">
     <path class="fil0" d="M118.98 80.89c-1.16,-1.16 -2.74,-1.82 -4.39,-1.82 -3.43,0 -6.22,2.79 -6.22,6.22 0,0 0,0.01 0,0.01l0 17.44c0,0 0,0.09 0,0.12 0,0.03 0,0.09 0,0.13l0 42.5c0.01,2.42 1.42,4.61 3.62,5.63l0 0.87c0.02,1.44 1.19,2.61 2.63,2.62 0.47,-0.01 0.93,-0.14 1.33,-0.38 0.19,-0.11 0.37,-0.25 0.52,-0.4 0.49,-0.49 0.76,-1.16 0.76,-1.85 0,0 0,0 0,0l0 -0.88 0.56 -0.28c0.44,-0.28 0.85,-0.59 1.22,-0.95 1.16,-1.17 1.81,-2.75 1.81,-4.39 0,-0.01 0,-0.01 0,-0.02l0 -42.49c0,0 0,-0.08 0,-0.12 0,-0.05 0,-0.09 0,-0.13l0 -0.78 0.15 0c0.03,0 0.07,0 0.11,0 0.34,0 0.68,-0.1 0.96,-0.29 0.09,-0.06 0.18,-0.12 0.26,-0.2 0.39,-0.35 0.62,-0.85 0.62,-1.37 0,-0.02 0,-0.04 0,-0.06l0 0 0.09 -13.36c-0.01,-0.01 -0.01,-0.02 -0.01,-0.03 0,-1.06 -0.78,-1.95 -1.83,-2.09 -0.08,-0.01 -0.15,-0.01 -0.23,-0.01 -0.07,0 -0.14,0 -0.22,0.01 -0.15,-1.38 -0.76,-2.66 -1.74,-3.65l0 0zm-2.95 71.09l0 0c0,0 0,0 0,0 0,0.72 -0.59,1.31 -1.31,1.32 -0.73,0 -1.32,-0.59 -1.32,-1.32l0 -0.43c0.43,0.1 0.87,0.15 1.31,0.15 0.45,0 0.89,-0.05 1.32,-0.15l0 0.43zm2.28 -6.52l0 0c-0.01,1.99 -1.61,3.6 -3.6,3.62 -0.01,0 -0.02,0 -0.03,0 -1.98,0 -3.58,-1.6 -3.58,-3.58 0,-0.01 0,-0.02 0,-0.03l0 -37.67c1.05,0.75 2.31,1.15 3.59,1.15 0.01,0 0.01,0 0.02,0 0.01,0 0.02,0 0.03,0 1.11,0 2.2,-0.31 3.15,-0.88l0.42 -0.29 0 37.68zm-0.07 -42.73c-0.02,1.98 -1.62,3.59 -3.61,3.6 0,0 -0.01,0 -0.01,0 -1.98,0 -3.6,-1.6 -3.6,-3.58l0 -17.45c0,-1.27 0.66,-2.44 1.75,-3.1 0.56,-0.33 1.2,-0.51 1.85,-0.52 1.99,0 3.6,1.62 3.6,3.61l0.02 17.44zm3.52 -16.05l-0.09 13.35c0,0.01 0,0.02 0,0.03 0,0.16 -0.06,0.31 -0.17,0.42 -0.08,0.07 -0.19,0.12 -0.31,0.12 -0.02,0 -0.04,-0.01 -0.07,-0.01 -0.1,-0.01 -0.19,-0.05 -0.28,-0.1l0 -14.57c0.04,-0.02 0.09,-0.02 0.13,-0.02 0.05,0 0.09,0 0.14,0.02 0.37,0.07 0.63,0.39 0.65,0.76l0 0z"/>
     <path class="fil1" d="M26.88 36.31l47.38 0c1.5,-0.01 2.72,-1.22 2.74,-2.73 0,0 0,-0.01 0,-0.01 0,-1.5 -1.21,-2.72 -2.71,-2.72 -0.01,0 -0.02,0 -0.03,0l-47.38 0c0,0 0,0 0,0 -1.49,0 -2.7,1.21 -2.7,2.7 0,0.01 0,0.02 0,0.03 0.01,1.5 1.21,2.71 2.7,2.73z"/>
     <path class="fil1" d="M24.18 52.54c0.01,1.49 1.2,2.71 2.7,2.74l79.84 0c1.5,-0.03 2.69,-1.25 2.7,-2.74 0,-0.01 0,-0.02 0,-0.03 0,-1.49 -1.21,-2.7 -2.7,-2.7 0,0 0,0 0,0l-79.84 0c0,0 0,0 0,0 -1.49,0 -2.7,1.21 -2.7,2.7 0,0.01 0,0.02 0,0.03l0 0z"/>
     <path class="fil1" d="M26.88 74.16l71.79 0c1.41,-0.1 2.5,-1.28 2.5,-2.69 0,-1.42 -1.09,-2.59 -2.5,-2.7l-71.79 0c-0.07,0 -0.13,0 -0.2,0 -1.49,0 -2.7,1.21 -2.7,2.7 0,1.49 1.21,2.7 2.7,2.7 0.07,0 0.13,-0.01 0.2,-0.01l0 0z"/>
     <path class="fil1" d="M26.88 93.11l31.13 0c1.41,-0.1 2.5,-1.28 2.5,-2.69 0,-1.42 -1.09,-2.59 -2.5,-2.69l-31.13 0c-0.07,-0.01 -0.13,-0.01 -0.2,-0.01 -1.49,0 -2.7,1.21 -2.7,2.7 0,1.49 1.21,2.7 2.7,2.7 0.07,0 0.13,0 0.2,-0.01l0 0z"/>
     <path class="fil1" d="M26.88 112.06l63.57 0c1.49,0 2.69,-1.2 2.69,-2.68 0,-1.48 -1.2,-2.69 -2.69,-2.69l-63.57 0c-1.48,0 -2.69,1.21 -2.69,2.69 0,1.48 1.21,2.68 2.69,2.68l0 0z"/>
     <path class="fil1" d="M55.32 125.57l-28.44 0c-1.51,0 -2.73,1.23 -2.73,2.73 0,1.51 1.22,2.73 2.73,2.73l28.44 0c1.51,0 2.73,-1.22 2.73,-2.73 0,-1.5 -1.22,-2.73 -2.73,-2.73l0 0z"/>
     <path class="fil1" d="M132.68 33.43c-0.02,-0.25 -0.06,-0.5 -0.11,-0.74l-0.13 -0.23c-0.12,-0.3 -0.29,-0.57 -0.52,-0.8l-30.85 -30.86 0 0c-0.22,-0.22 -0.48,-0.41 -0.77,-0.56 -0.01,0.01 -0.02,0.01 -0.04,0.01 -0.07,0 -0.14,-0.04 -0.18,-0.09 -0.25,-0.09 -0.52,-0.14 -0.78,-0.16l-96.6 0c0,0 0,0 0,0 -1.49,0 -2.7,1.21 -2.7,2.7 0,0.01 0,0.02 0,0.03l0 158.51c0,0 0,0.01 0,0.01 0,1.46 1.18,2.63 2.63,2.63 0.02,0 0.05,0 0.07,0l127.28 0c0.04,0 0.07,0 0.1,0 1.45,0 2.63,-1.17 2.63,-2.62 0,-0.01 0,-0.02 0,-0.02l0 -127.66c0,-0.05 -0.01,-0.1 -0.03,-0.15l0 0zm-30.85 -24.2l21.65 21.62 -21.65 0 0 -21.62zm25.47 149.32l-121.92 0 0 -153.17 91.02 0 0 28.2c0.03,1.5 1.24,2.71 2.74,2.73l28.16 0 0 122.24z"/>
    </g>
   </g>
  </g>
 </g>
</svg>
