<?xml version="1.0" encoding="UTF-8"?>
<!DOCTYPE svg PUBLIC "-//W3C//DTD SVG 1.1//EN" "http://www.w3.org/Graphics/SVG/1.1/DTD/svg11.dtd">
<!-- Creator: CorelDRAW -->
<svg xmlns="http://www.w3.org/2000/svg" xml:space="preserve" width="365px" height="380px" version="1.1" style="shape-rendering:geometricPrecision; text-rendering:geometricPrecision; image-rendering:optimizeQuality; fill-rule:evenodd; clip-rule:evenodd"
viewBox="0 0 158.1 164.63"
 xmlns:xlink="http://www.w3.org/1999/xlink"
 xmlns:xodm="http://www.corel.com/coreldraw/odm/2003">
 <defs>
  <style type="text/css">
   <![CDATA[
    .fil0 {fill:black}
   ]]>
  </style>
 </defs>
 <g id="Camada_x0020_1">
  <metadata id="CorelCorpID_0Corel-Layer"/>
  <g id="_2293904574080">
   <path class="fil0" d="M93.07 141.46l2.2 3.04 -4.42 0.06 2.22 -3.1zm-14.4 -0.02l1.79 3.12 -4 0 2.21 -3.12zm24.95 0.17l-0.06 -16.8 12.96 5.88 -12.9 10.92zm16.58 -15.17l-15.98 -7.29 26.55 -57.86 15.98 7.25 -26.55 57.9zm28.87 -62.86l-15.69 -7.12c0.08,-1.22 2.88,-8.94 5.32,-8.94 1.03,0 10.35,4.31 11.73,4.99 4.17,2.06 0.37,7.45 -1.36,11.07zm-148.91 -54.21c0,4.05 -1.08,14.05 2.35,14.05l1 0c6.14,0 -2.03,-18.07 5.69,-18.07l104.4 0c4.14,0 3.36,2.44 3.35,6.36l0 29.45c0,6.84 0.98,35.03 -0.29,38.18 -3.48,8.57 -8.23,18.39 -12.32,26.85 -8.55,17.7 -6.13,11.72 -6.13,33.01 -1.06,-1.22 -3.3,-5.02 -5.02,-5.02 -2.02,0 -7.01,7.05 -7.36,8.37 -2.1,-1.54 -4.01,-8.37 -7.03,-8.37 -2.1,0 -5.15,4.88 -6.31,6.41 -0.57,0.74 -2.21,3.03 -2.86,3.49 -2.05,1.44 -3.21,0.4 -3.21,3.82 0,0.81 1.2,2.01 2.01,2.01l37.14 0c3.91,0 1.64,-3.82 2.57,-5.11 0.76,-1.04 13.02,-10.32 15.25,-12.87 1.98,-2.26 9.71,-20.88 11.85,-25.3 2.77,-5.73 22.86,-48.56 22.86,-51.42 0,-4.82 -3.82,-6.94 -7.31,-8.41 -4.49,-1.9 -8.16,-4.64 -12.76,-4.64 -8.11,0 -11.12,18.84 -15.4,23.76 0,-12.49 0,-24.98 0,-37.48 0,-12.53 3.28,-28.44 -9.03,-28.44l-104.74 0c-5.52,0 -8.7,3.74 -8.7,9.37z"/>
   <path class="fil0" d="M9.78 132.59l22.18 0.04 0.29 0.55 0.06 21.75 -22.53 -22.34zm-9.62 -99.46l0 95.7c0,4.02 13.9,15.73 16.99,18.82 3.08,3.09 14.8,16.98 18.82,16.98l78.3 0c9.58,0 8.36,-10.12 8.36,-16.39 0,-4.52 -5.62,-5.49 -5.71,0.64 -0.07,5 1.63,10.4 -3.32,10.4l-75.62 0 0 -22.42c0,-7.25 -3.45,-10.04 -10.71,-10.04l-21.75 0 0 -95.37c0,-2.25 -5.36,-3.56 -5.36,1.68z"/>
   <path class="fil0" d="M17.23 94.03c0,1.62 1.06,2.68 2.68,2.68l82.98 0c3.43,0 3.61,-5.36 -0.33,-5.36l-82.65 0c-1.62,0 -2.68,1.06 -2.68,2.68z"/>
   <path class="fil0" d="M17.23 56.89c0,1.61 1.06,2.67 2.68,2.67l82.98 0c3.77,0 3.25,-5.35 -0.33,-5.35l-82.32 0c-1.62,0 -3.01,1.11 -3.01,2.68z"/>
   <path class="fil0" d="M17.23 75.29c0,1.65 1.36,3.01 3.01,3.01l82.32 0c3.64,0 4.16,-5.35 0.33,-5.35l-82.98 0c-1.44,0 -2.68,1.03 -2.68,2.34z"/>
   <path class="fil0" d="M17.23 38.15c0,1.65 1.36,3.01 3.01,3.01l47.85 0c3.67,0 3.9,-5.36 0.34,-5.36l-48.52 0c-1.44,0 -2.68,1.04 -2.68,2.35z"/>
   <path class="fil0" d="M17.23 112.43c0,2.06 1.59,3.01 3.68,3.01l39.49 0c4.66,0 5.54,-5.69 -0.67,-5.69l-38.15 0c-2.14,0 -4.35,0.64 -4.35,2.68z"/>
   <path class="fil0" d="M17.23 19.74c0,1.23 0.92,2.68 2.01,2.68l29.44 0c3.88,0 3.26,-5.35 -0.33,-5.35l-28.11 0c-1.49,0 -3.01,1.35 -3.01,2.67z"/>
  </g>
 </g>
</svg>
