<?xml version="1.0" encoding="UTF-8"?>
<!DOCTYPE svg PUBLIC "-//W3C//DTD SVG 1.1//EN" "http://www.w3.org/Graphics/SVG/1.1/DTD/svg11.dtd">
<!-- Creator: CorelDRAW -->
<svg xmlns="http://www.w3.org/2000/svg" xml:space="preserve" width="37px" height="50px" version="1.1" style="shape-rendering:geometricPrecision; text-rendering:geometricPrecision; image-rendering:optimizeQuality; fill-rule:evenodd; clip-rule:evenodd"
viewBox="0 0 1.13 1.5"
 xmlns:xlink="http://www.w3.org/1999/xlink"
 xmlns:xodm="http://www.corel.com/coreldraw/odm/2003">
 <defs>
  <style type="text/css">
   <![CDATA[
    .fil0 {fill:black}
   ]]>
  </style>
 </defs>
 <g id="Camada_x0020_1">
  <metadata id="CorelCorpID_0Corel-Layer"/>
  <path class="fil0" d="M0.11 0c0,0 0.01,0 0.01,0l0.85 0c0.01,0 0.01,0 0.01,0l0.14 0.15c0,0 0.01,0 0.01,0l0 1.23c0,0 -0.01,0 -0.01,0l-0.01 0.02c0,0 -0.01,0 -0.01,0l-0.98 0c-0.01,0 -0.01,0 -0.01,0l-0.02 -0.02c0,0 0,0 0,0l0 -1.35c0,-0.01 0,-0.01 0,-0.01l0.02 -0.02c0,0 0,0 0,0zm-0.04 1.43l0.01 0.01 0.98 0c0,0 0.01,0 0.01,0.01 0,0.01 -0.01,0.01 -0.01,0.01l-0.99 0c0,0 0,0 0,0l-0.02 -0.02c0,0 0,0 0,0l0 -1.39c0,0 0,-0.01 0.01,-0.01 0,0 0.01,0.01 0.01,0.01l0 1.38zm-0.05 0.05l0.01 0 0.98 0c0,0 0.01,0.01 0.01,0.01 0,0.01 -0.01,0.01 -0.01,0.01l-0.98 0c-0.01,0 -0.01,0 -0.01,0l-0.02 -0.01c0,0 0,-0.01 0,-0.01l0 -1.38c0,-0.01 0,-0.01 0.01,-0.01 0.01,0 0.01,0 0.01,0.01l0 1.38zm0.09 -1.45l0 1.34 0.01 0.01 0.98 0 0 -0.01 0 -1.21 -0.13 -0.14 -0.85 0 -0.01 0.01zm0.29 0.45l0 -0.05c0,-0.01 0,-0.01 0.01,-0.01 0,0 0.01,0 0.01,0.01l0 0.05 0.1 0 0 -0.1c0,-0.01 0,-0.01 0.01,-0.01 0,0 0.01,0 0.01,0.01l0 0.11c0,0 -0.01,0.01 -0.01,0.01l-0.24 0c-0.01,0 -0.01,-0.01 -0.01,-0.01l0 -0.11c0,-0.01 0,-0.01 0.01,-0.01 0,0 0.01,0 0.01,0.01l0 0.1 0.1 0zm0.31 0.74c0,0 0,0 0,-0.01 0,-0.01 0,-0.03 0,-0.04 0.01,-0.01 0.02,-0.03 0.03,-0.04 0.01,0 0.02,0 0.02,0 0.01,0.01 0.01,0.02 0.01,0.03 0,0.01 -0.02,0.04 -0.03,0.06 0,0 0,0 0,0 0,0 0,0 0.01,0l0.02 0c0.01,0 0.03,-0.01 0.03,-0.02 0.01,-0.01 0.01,-0.02 0.02,-0.02 0,-0.01 0.01,-0.01 0.01,-0.01 0,0 0.01,0.01 0.01,0.01 0,0.02 0,0.03 0,0.04l0 0c0,0 0.01,0 0.01,-0.01 0,-0.01 0.01,-0.02 0.02,-0.03 0,0 0,-0.01 0.01,-0.01l0.05 0c0.01,0 0.01,0.01 0.01,0.02 0,0 0,0.01 -0.01,0.01l-0.05 0c0,0 -0.01,0.01 -0.01,0.02l0.11 0c0.01,0 0.01,0.01 0.01,0.01 0,0.01 0,0.02 -0.01,0.02l-0.13 0c0,0 0,0 0,0 0,0.01 -0.01,0.02 -0.01,0.02 -0.01,0 -0.02,0 -0.02,-0.01 -0.01,0 -0.01,0 -0.01,-0.01 0,0 0,0 0,0l-0.04 0c-0.01,0 -0.02,0 -0.03,0l-0.02 0c-0.01,0.01 -0.02,0.02 -0.03,0.03 0,0 -0.01,0 -0.02,0 0,-0.01 0,-0.01 0,-0.02 0.01,0 0.01,-0.01 0.02,-0.01l-0.07 0c0,0 -0.01,-0.01 -0.01,-0.02 0,0 0.01,-0.01 0.01,-0.01l0.09 0zm0.25 -1.05l0.11 0c0.01,0 0.02,0.01 0.02,0.01 0,0.01 -0.01,0.01 -0.02,0.01l-0.12 0c-0.01,0 -0.02,0 -0.02,-0.01l0 -0.13c0,0 0.01,-0.01 0.02,-0.01 0,0 0.01,0.01 0.01,0.01l0 0.12zm-0.72 0.47l0.73 0c0.01,0 0.01,0 0.01,0.01 0,0.01 0,0.01 -0.01,0.01l-0.73 0c0,0 -0.01,0 -0.01,-0.01 0,-0.01 0.01,-0.01 0.01,-0.01zm0 0.09l0.73 0c0.01,0 0.02,0.01 0.02,0.01 0,0.01 -0.01,0.01 -0.02,0.01l-0.73 0c0,0 -0.01,0 -0.01,-0.01 0,0 0.01,-0.01 0.01,-0.01zm0 0.1l0.74 0c0,0 0.01,0 0.01,0.01 0,0 -0.01,0.01 -0.01,0.01l-0.74 0c0,0 -0.01,-0.01 -0.01,-0.01 0,-0.01 0.01,-0.01 0.01,-0.01zm0.01 0.09l0.73 0c0,0 0.01,0 0.01,0.01 0,0.01 -0.01,0.01 -0.01,0.01l-0.73 0c-0.01,0 -0.02,0 -0.02,-0.01 0,-0.01 0.01,-0.01 0.02,-0.01zm0 0.09l0.37 0c0.01,0 0.01,0.01 0.01,0.01 0,0.01 0,0.01 -0.01,0.01l-0.37 0c-0.01,0 -0.01,0 -0.01,-0.01 0,0 0,-0.01 0.01,-0.01zm0.16 -0.82l-0.16 0.17c-0.01,0 -0.01,0 -0.02,0 0,-0.01 0,-0.02 0,-0.02l0.17 -0.17c0,0 0.01,0 0.01,0 0,0 0,0 0.01,0l0.17 0.17c0,0.01 0,0.01 0,0.02 -0.01,0 -0.01,0 -0.02,0l-0.16 -0.17zm0 0.05l-0.16 0.16c-0.01,0.01 -0.01,0.01 -0.02,0 0,0 0,-0.01 0,-0.01l0.17 -0.17c0,0 0.01,0 0.01,0 0,0 0,0 0.01,0l0.17 0.17c0,0 0,0.01 0,0.02 -0.01,0 -0.01,0 -0.02,0l-0.16 -0.17zm0.4 0.98l0 0c0,0 0,0 0,0 0,0 0,0 0,0 0,0 0,0 0,0zm-0.08 -0.03c0.01,-0.01 0.02,-0.03 0.02,-0.04 0,0 0,0 0,0 0,0 0,0 -0.01,0.01 0,0 -0.01,0.01 -0.01,0.02 0,0 0,0.01 0,0.01z"/>
 </g>
</svg>
