<?xml version="1.0" encoding="UTF-8"?>
<!DOCTYPE svg PUBLIC "-//W3C//DTD SVG 1.1//EN" "http://www.w3.org/Graphics/SVG/1.1/DTD/svg11.dtd">
<!-- Creator: CorelDRAW -->
<svg xmlns="http://www.w3.org/2000/svg" xml:space="preserve" width="292px" height="380px" version="1.1" style="shape-rendering:geometricPrecision; text-rendering:geometricPrecision; image-rendering:optimizeQuality; fill-rule:evenodd; clip-rule:evenodd"
viewBox="0 0 51.26 66.78"
 xmlns:xlink="http://www.w3.org/1999/xlink"
 xmlns:xodm="http://www.corel.com/coreldraw/odm/2003">
 <defs>
  <style type="text/css">
   <![CDATA[
    .fil0 {fill:black}
   ]]>
  </style>
 </defs>
 <g id="Camada_x0020_1">
  <metadata id="CorelCorpID_0Corel-Layer"/>
  <g id="_2293904611408">
   <path class="fil0" d="M2.35 9l28.82 0 0 9.78c0,0.74 0.58,1.31 1.31,1.31l9.78 0 0 44.35 -39.91 0 0 -55.44zm31.17 1.7l7.08 7.01 -7.08 0.03 0 -7.04zm-33.52 -2.48l0 57c0,0.82 0.35,1.56 1.17,1.56l42.27 0c0.64,0 1.17,-0.53 1.17,-1.17l0 -46.7c0,-0.83 -11.43,-12.26 -12.26,-12.26l-31.18 0c-0.82,0 -1.17,0.75 -1.17,1.57z"/>
   <path class="fil0" d="M6.65 1.57l0 2.86 2.35 0 0 -2.21 40.04 0 0 55.56 -2.21 0 0 2.35c2.01,0 4.43,0.42 4.43,-1.17l0 -58.05c0,-0.36 -0.55,-0.91 -0.91,-0.91l-42.52 0c-0.83,0 -1.18,0.75 -1.18,1.57z"/>
   <polygon class="fil0" points="9,24.52 35.74,24.52 35.74,22.17 9,22.17 "/>
   <path class="fil0" d="M9 51.26l26.35 0c0.3,0 0.39,-0.09 0.39,-0.39l0 -1.96 -26.74 0 0 2.35z"/>
   <polygon class="fil0" points="9,37.83 35.74,37.83 35.74,35.61 9,35.61 "/>
   <polygon class="fil0" points="15.65,57.91 35.74,57.91 35.74,55.57 15.65,55.57 "/>
   <path class="fil0" d="M9 31.17l17.87 0 0 -1.95c0,-0.3 -0.09,-0.39 -0.39,-0.39l-17.48 0 0 2.34z"/>
   <polygon class="fil0" points="18.91,44.48 35.74,44.48 35.74,42.26 18.91,42.26 "/>
   <polygon class="fil0" points="9,17.87 17.87,17.87 17.87,15.52 9,15.52 "/>
   <polygon class="fil0" points="9,44.48 16.83,44.48 16.83,42.26 9,42.26 "/>
   <path class="fil0" d="M28.96 29.22l0 1.95 6.78 0c0,-1.54 0.22,-2.34 -0.39,-2.34l-6 0c-0.3,0 -0.39,0.09 -0.39,0.39z"/>
   <polygon class="fil0" points="9,57.91 13.44,57.91 13.44,55.57 9,55.57 "/>
  </g>
 </g>
</svg>
