<?xml version="1.0" encoding="UTF-8"?>
<!DOCTYPE svg PUBLIC "-//W3C//DTD SVG 1.1//EN" "http://www.w3.org/Graphics/SVG/1.1/DTD/svg11.dtd">
<!-- Creator: CorelDRAW -->
<svg xmlns="http://www.w3.org/2000/svg" xml:space="preserve" width="308px" height="380px" version="1.1" style="shape-rendering:geometricPrecision; text-rendering:geometricPrecision; image-rendering:optimizeQuality; fill-rule:evenodd; clip-rule:evenodd"
viewBox="0 0 40.14 49.57"
 xmlns:xlink="http://www.w3.org/1999/xlink"
 xmlns:xodm="http://www.corel.com/coreldraw/odm/2003">
 <defs>
  <style type="text/css">
   <![CDATA[
    .fil0 {fill:black}
   ]]>
  </style>
 </defs>
 <g id="Camada_x0020_1">
  <metadata id="CorelCorpID_0Corel-Layer"/>
  <path class="fil0" d="M25.16 42.9c0.25,-0.39 0.6,-0.95 0.63,-1.23 0,-0.01 0,-0.02 0,-0.03 -0.06,0.04 -0.12,0.09 -0.15,0.11 -0.19,0.19 -0.35,0.46 -0.43,0.72 -0.04,0.13 -0.06,0.28 -0.05,0.43zm-17.03 -20.47l21.71 0c0.43,-0.03 0.76,-0.39 0.76,-0.81 0,-0.43 -0.33,-0.79 -0.76,-0.82l-21.71 0c-0.02,0 -0.04,0 -0.06,0 -0.45,0 -0.82,0.37 -0.82,0.82 0,0.45 0.37,0.81 0.82,0.81 0.02,0 0.04,0 0.06,0l0 0zm1.2 5.73l22.31 0c1.01,-0.03 1.79,-0.38 1.79,-0.81 0,-0.43 -0.78,-0.78 -1.79,-0.81l-22.31 0c-0.05,-0.01 -0.09,-0.01 -0.14,-0.01 -1.07,0 -1.94,0.37 -1.94,0.82 0,0.45 0.87,0.82 1.94,0.82 0.05,0 0.09,0 0.14,-0.01l0 0zm-0.95 5.74l25.13 0c0.59,0 1.06,-0.37 1.06,-0.82 0,-0.44 -0.47,-0.81 -1.06,-0.81l-25.13 0c-0.59,0 -1.06,0.37 -1.06,0.81 0,0.45 0.47,0.82 1.06,0.82l0 0zm22.65 4.08l-21.65 0c-1.15,0 -2.07,0.37 -2.07,0.83 0,0.45 0.92,0.82 2.07,0.82l21.65 0c1.15,0 2.08,-0.37 2.08,-0.82 0,-0.46 -0.93,-0.83 -2.08,-0.83l0 0zm9.1 -27.87c0,-0.07 -0.02,-0.15 -0.03,-0.22l-0.04 -0.07c-0.04,-0.09 -0.09,-0.17 -0.16,-0.24l-9.33 -9.34c-0.07,-0.07 -0.14,-0.12 -0.23,-0.17 0,0 -0.01,0 -0.01,0 -0.02,0 -0.05,-0.01 -0.06,-0.02 -0.08,-0.03 -0.15,-0.04 -0.23,-0.05l-29.22 0c0,0 0,0 0,0 -0.45,0 -0.82,0.37 -0.82,0.82 0,0 0,0 0,0.01l0 47.94c0,0 0,0 0,0.01 0,0.43 0.36,0.79 0.8,0.79 0,0 0.01,0 0.02,0l38.5 0c0.01,0 0.02,0 0.03,0 0.44,0 0.79,-0.36 0.79,-0.79 0,-0.01 0,-0.01 0,-0.01l0 -38.61c0,-0.02 0,-0.03 -0.01,-0.05l0 0zm-9.33 -7.32l6.55 6.54 -6.55 0 0 -6.54zm7.7 45.17l-36.87 0 0 -46.33 27.53 0 0 8.53c0.01,0.45 0.37,0.82 0.83,0.82l8.51 0 0 36.98zm-26.94 -40.11l-5.47 5.46c-0.14,0.14 -0.36,0.13 -0.5,-0.01 -0.14,-0.14 -0.14,-0.36 0,-0.5l5.72 -5.71c0.07,-0.07 0.16,-0.11 0.26,-0.11 0.09,0.01 0.18,0.04 0.25,0.11l5.75 5.81c0.14,0.14 0.14,0.37 0,0.51 -0.14,0.14 -0.37,0.14 -0.51,0l-5.5 -5.56zm0 -1.59l-5.47 5.46c-0.14,0.14 -0.36,0.14 -0.5,0 -0.14,-0.14 -0.14,-0.37 0,-0.51l5.72 -5.71c0.07,-0.07 0.16,-0.1 0.26,-0.1 0.09,0 0.18,0.03 0.25,0.1l5.75 5.81c0.14,0.14 0.14,0.37 0,0.51 -0.14,0.14 -0.37,0.14 -0.51,0l-5.5 -5.56zm-0.33 9.57l0 -1.63c0,-0.2 0.17,-0.36 0.36,-0.36 0.2,0 0.36,0.16 0.36,0.36l0 1.63 3.3 0 0 -3.36c0,-0.2 0.16,-0.36 0.36,-0.36 0.19,0 0.35,0.16 0.35,0.36l0 3.72c0,0.2 -0.16,0.36 -0.35,0.36l-8.1 0c-0.19,0 -0.35,-0.16 -0.35,-0.36l0 -3.72c0,-0.2 0.16,-0.36 0.35,-0.36 0.2,0 0.36,0.16 0.36,0.36l0 3.36 3.36 0zm16.52 28.23l0.24 0c0.01,0 0.01,-0.01 0.01,-0.01 0,-0.08 0,-0.16 0,-0.24 -0.08,0.09 -0.17,0.17 -0.25,0.25zm-3.43 0c0.09,-0.12 0.18,-0.24 0.27,-0.37 -0.16,-0.45 -0.21,-0.98 -0.07,-1.44 0.16,-0.48 0.51,-1.03 0.97,-1.27 0.23,-0.13 0.52,-0.18 0.75,-0.02 0.25,0.18 0.29,0.5 0.26,0.78 -0.06,0.56 -0.71,1.52 -1.07,2.03 0,0 0.01,0.01 0.01,0.02 0.07,0.1 0.16,0.2 0.27,0.27l0.79 0c0.46,-0.23 0.86,-0.58 1.19,-0.98 0.16,-0.18 0.32,-0.39 0.43,-0.61 0.08,-0.15 0.25,-0.22 0.42,-0.17 0.16,0.04 0.27,0.2 0.25,0.37 -0.03,0.46 -0.06,0.93 -0.08,1.39l0.22 0c0.06,-0.11 0.13,-0.22 0.19,-0.32 0.24,-0.4 0.47,-0.8 0.7,-1.2 0.07,-0.11 0.19,-0.18 0.32,-0.18l1.84 0.04c0.19,0.01 0.35,0.17 0.35,0.37 -0.01,0.2 -0.17,0.35 -0.37,0.35l-1.62 -0.04c-0.19,0.33 -0.38,0.66 -0.57,0.98l3.82 0c0.2,0 0.36,0.16 0.36,0.36 0,0.2 -0.16,0.36 -0.36,0.36l-4.27 0c-0.05,0.07 -0.09,0.15 -0.14,0.22 -0.12,0.18 -0.3,0.46 -0.47,0.58 -0.24,0.18 -0.53,0.06 -0.64,-0.21 -0.04,-0.11 -0.06,-0.24 -0.07,-0.36 0,-0.08 -0.01,-0.16 -0.01,-0.23l-1.33 0c-0.37,0.15 -0.77,0.17 -1.14,0l-0.85 0c-0.28,0.36 -0.57,0.72 -0.87,1.07 -0.12,0.15 -0.35,0.17 -0.5,0.04 -0.15,-0.13 -0.17,-0.36 -0.04,-0.51 0.16,-0.2 0.33,-0.4 0.49,-0.6l-2.19 0c-0.19,0 -0.35,-0.16 -0.35,-0.36 0,-0.2 0.16,-0.36 0.35,-0.36l2.76 0z"/>
 </g>
</svg>
