<?xml version="1.0" encoding="UTF-8"?>
<!DOCTYPE svg PUBLIC "-//W3C//DTD SVG 1.1//EN" "http://www.w3.org/Graphics/SVG/1.1/DTD/svg11.dtd">
<!-- Creator: CorelDRAW -->
<svg xmlns="http://www.w3.org/2000/svg" xml:space="preserve" width="308px" height="380px" version="1.1" style="shape-rendering:geometricPrecision; text-rendering:geometricPrecision; image-rendering:optimizeQuality; fill-rule:evenodd; clip-rule:evenodd"
viewBox="0 0 3014.91 3723.09"
 xmlns:xlink="http://www.w3.org/1999/xlink"
 xmlns:xodm="http://www.corel.com/coreldraw/odm/2003">
 <defs>
  <style type="text/css">
   <![CDATA[
    .fil0 {fill:#1A171B;fill-rule:nonzero}
   ]]>
  </style>
 </defs>
 <g id="Camada_x0020_1">
  <metadata id="CorelCorpID_0Corel-Layer"/>
  <g id="_2293913671936">
   <g id="Camada_2" data-name="Camada 2">
    <g id="Camada_1-2" data-name="Camada 1">
     <path class="fil0" d="M610.61 824.91l1076.4 0c34.14,-0.35 61.77,-27.84 62.29,-61.97 0.01,-0.1 0.01,-0.21 0.01,-0.32 0,-34.06 -27.6,-61.66 -61.65,-61.66 -0.21,0 -0.44,0 -0.65,0l-1076.4 0c0.01,0 0.01,0 0.01,0 -33.86,0 -61.32,27.46 -61.32,61.32 0,0.22 0,0.43 0,0.66 0.16,33.9 27.41,61.44 61.31,61.97z"/>
     <path class="fil0" d="M549.29 1193.5c0.18,33.96 27.39,61.6 61.33,62.3l1813.9 0c33.94,-0.7 61.14,-28.34 61.32,-62.3 0,-0.22 0,-0.43 0,-0.66 0,-33.86 -27.45,-61.32 -61.32,-61.32 0,0 0,0 0,0l-1813.91 0c0.01,0 0.01,0 0.01,0 -33.86,0 -61.32,27.46 -61.32,61.32 0,0.23 0,0.44 0,0.66l-0.01 0z"/>
     <path class="fil0" d="M610.61 1684.74l1630.91 0c32.05,-2.35 56.86,-29.03 56.86,-61.16 0,-32.13 -24.81,-58.82 -56.85,-61.17l-1630.92 0c-1.48,-0.09 -2.98,-0.15 -4.47,-0.15 -33.86,0 -61.32,27.45 -61.32,61.32 0,33.86 27.46,61.32 61.32,61.32 1.49,0 2.99,-0.07 4.48,-0.16l-0.01 0z"/>
     <path class="fil0" d="M700.7 2115.3l1675.71 0c75.98,-2.35 134.76,-29.04 134.76,-61.17 0,-32.12 -58.78,-58.82 -134.7,-61.16l-1675.77 0.02c-3.51,-0.12 -7.04,-0.18 -10.57,-0.18 -80.25,0 -145.31,27.45 -145.31,61.32 0,33.86 65.06,61.32 145.31,61.32 3.53,0 7.06,-0.06 10.6,-0.16l-0.03 0.01z"/>
     <path class="fil0" d="M629.32 2545.86l1887.46 0c44.02,-0.01 79.72,-27.32 79.72,-61.01 0,-33.68 -35.7,-60.99 -79.72,-60.99l-1887.46 0.01c-44,-0.01 -79.7,27.3 -79.7,60.98 0,33.69 35.7,61 79.71,61l-0.01 0.01z"/>
     <path class="fil0" d="M2330.78 2852.8l-1626.18 0c-86.11,-0.02 -155.95,27.73 -155.95,61.96 0,34.22 69.84,61.97 155.97,61.97l1626.16 0.01c86.17,-0.01 156.01,-27.76 156.01,-61.98 0,-34.23 -69.84,-61.98 -155.97,-61.98l-0.04 0.02z"/>
     <path class="fil0" d="M3014.25 759.35c-0.52,-5.56 -1.43,-11.16 -2.62,-16.61l-2.93 -5.22c-2.61,-6.84 -6.6,-13.07 -11.73,-18.29l-700.97 -700.97 0 0c-4.98,-5.2 -10.83,-9.51 -17.29,-12.72 -0.3,0.06 -0.61,0.08 -0.93,0.08 -1.65,0 -3.24,-0.75 -4.28,-2.02 -5.67,-2 -11.62,-3.22 -17.62,-3.6l-2194.57 0c0.01,0 0.01,0 0.01,0 -33.86,0 -61.32,27.45 -61.32,61.32 0,0.22 0,0.43 0,0.65l-0.01 3601.06c0.01,0.12 0.01,0.23 0.01,0.35 0,32.97 26.73,59.69 59.7,59.69 0.54,0 1.1,-0.01 1.62,-0.03l2891.61 0.02c0.75,0 1.53,0.03 2.28,0.03 32.97,0 59.7,-26.73 59.7,-59.7 0,-0.12 0,-0.25 0,-0.37l0 -2900.08c-0.07,-1.21 -0.29,-2.42 -0.66,-3.57l0 -0.02zm-700.96 -549.62l491.88 491.23 -491.88 0 0 -491.23zm578.64 3392.32l-2769.61 0 0 -3479.73 2067.67 0 0 640.62c0.7,34.05 28.24,61.45 62.3,61.97l639.64 0 0 2777.14z"/>
    </g>
   </g>
  </g>
 </g>
</svg>
